<svg width="259" height="370" viewBox="0 0 259 370" fill="none" xmlns="http://www.w3.org/2000/svg">
<path fill-rule="evenodd" clip-rule="evenodd" d="M213.703 43.4476C224.098 43.4477 234.25 45.9219 244.149 50.8695C254.047 55.8174 259 63.981 259 75.3597C259 88.7167 256.028 95.3974 250.089 95.3988C247.614 95.3988 245.88 92.9242 244.89 87.9779C244.395 85.5047 244.15 83.0292 244.149 80.556V74.6205C244.149 69.6732 241.919 65.4655 237.465 62.0023C233.01 58.0441 228.059 56.0658 222.614 56.0658C211.229 56.0658 198.609 60.5177 184.749 69.4232C170.889 78.3292 159.255 88.7214 149.85 100.596C140.445 112.965 132.768 127.062 126.828 142.893C120.888 158.23 117.924 173.075 117.924 187.423C117.924 205.235 121.881 220.575 129.801 233.439C137.721 246.303 147.125 257.687 158.015 267.582C169.399 277.478 179.552 287.122 188.462 296.523C192.916 291.082 197.617 285.887 202.565 280.941C208.01 275.993 212.96 272.03 217.415 269.061C221.375 266.587 224.102 265.351 225.587 265.351C227.07 265.352 227.813 266.099 227.813 267.582C227.811 270.055 225.581 273.021 221.128 276.483L212.216 285.39C207.762 289.842 202.32 295.533 195.887 302.458C199.847 306.911 203.063 311.615 205.538 316.563C208.013 321.51 209.251 326.955 209.251 332.892C209.25 340.807 204.795 348.972 195.887 357.382C186.978 365.792 178.313 369.999 169.899 370C163.464 370 158.759 367.771 155.789 363.318C153.315 359.36 152.077 355.403 152.076 351.446C152.076 343.53 155.545 335.367 162.475 326.956C164.95 323.988 168.41 320.024 172.865 315.077C177.32 309.634 180.536 305.427 182.516 302.458C176.081 293.554 167.417 285.39 156.528 277.969C145.639 270.548 134.996 261.147 124.602 249.768C115.197 239.378 107.275 226.762 100.84 211.92C94.405 196.583 91.1896 181.984 91.1895 168.13C91.1895 151.803 94.9028 136.218 102.327 121.375C109.752 106.532 118.911 93.6656 129.801 82.7806C141.68 70.9066 154.798 61.5072 169.152 54.5804C183.507 47.159 198.359 43.4478 213.703 43.4476ZM189.201 309.88C185.241 314.828 181.528 320.272 178.063 326.209C175.094 331.651 173.612 336.6 173.611 341.053C173.611 346.99 175.094 349.96 178.063 349.96C181.528 349.96 184.745 346.744 187.715 340.314C191.18 334.376 192.914 328.436 192.914 322.498C192.914 319.531 192.417 316.81 191.428 314.337C190.438 311.864 189.696 310.375 189.201 309.88ZM0 3.8607C11.6529 0.815966 23.3048 -0.992336 35.624 0.577493C72.9835 5.34029 104.68 32.2628 105.575 80.6722C90.1372 62.1933 73.686 49.7612 53.708 41.3021L59.8213 46.4261C74.9338 57.8104 91.5924 79.1177 102.457 96.4066C81.4613 112.015 55.449 110.016 33.8408 88.2025C13.3292 67.4958 3.74469 33.5931 0 3.8607Z" fill="#AABA78"/>
</svg>
