<svg width="83" height="50" viewBox="0 0 83 50" fill="none" xmlns="http://www.w3.org/2000/svg">
<path fill-rule="evenodd" clip-rule="evenodd" d="M28.7812 5.85418C30.1812 5.85418 31.5485 6.18752 32.8818 6.85418C34.2149 7.52087 34.8818 8.62082 34.8818 10.154C34.8818 11.9538 34.4815 12.854 33.6816 12.8542C33.3483 12.8542 33.1148 12.5207 32.9814 11.8542C32.9148 11.5209 32.8819 11.1874 32.8818 10.8542V10.0544C32.8818 9.38776 32.5814 8.82083 31.9814 8.35418C31.3814 7.82085 30.7148 7.55438 29.9814 7.55438C28.4482 7.55438 26.7484 8.15425 24.8818 9.35418C23.0152 10.5542 21.4483 11.9544 20.1816 13.5544C18.9151 15.221 17.881 17.1204 17.0811 19.2536C16.2811 21.3202 15.8819 23.3204 15.8818 25.2536C15.8818 27.6536 16.4148 29.7205 17.4814 31.4538C18.5481 33.1871 19.8146 34.721 21.2812 36.0544C22.8145 37.3877 24.1819 38.6872 25.3818 39.9538C25.9817 39.2206 26.6147 38.5207 27.2812 37.8542C28.0146 37.1875 28.6813 36.6536 29.2812 36.2536C29.8146 35.9203 30.1818 35.7536 30.3818 35.7536C30.5816 35.7537 30.6816 35.8545 30.6816 36.0544C30.6814 36.3876 30.381 36.7872 29.7812 37.2536L28.5811 38.4538C27.9812 39.0537 27.2483 39.8205 26.3818 40.7536C26.9152 41.3536 27.3483 41.9873 27.6816 42.654C28.0149 43.3206 28.1816 44.0542 28.1816 44.8542C28.1815 45.9207 27.5816 47.0208 26.3818 48.154C25.182 49.2872 24.015 49.8541 22.8818 49.8542C22.0152 49.8542 21.3814 49.5538 20.9814 48.9538C20.6482 48.4206 20.4815 47.8874 20.4814 47.3542C20.4814 46.2875 20.9485 45.1877 21.8818 44.0544C22.2152 43.6544 22.6813 43.1204 23.2812 42.4538C23.8812 41.7205 24.3144 41.1536 24.5811 40.7536C23.7144 39.5538 22.5476 38.4537 21.0811 37.4538C19.6145 36.4538 18.1811 35.1872 16.7812 33.654C15.5147 32.2541 14.4477 30.5542 13.5811 28.5544C12.7144 26.4877 12.2813 24.5206 12.2812 22.654C12.2812 20.4541 12.7813 18.3541 13.7812 16.3542C14.7812 14.3542 16.0148 12.6206 17.4814 11.154C19.0814 9.55406 20.848 8.28751 22.7812 7.35418C24.7145 6.35422 26.7147 5.85422 28.7812 5.85418ZM25.4814 41.7536C24.9481 42.4202 24.4481 43.1538 23.9814 43.9538C23.5815 44.6871 23.3819 45.3538 23.3818 45.9538C23.3818 46.7538 23.5814 47.154 23.9814 47.154C24.4481 47.154 24.8813 46.7207 25.2812 45.8542C25.7479 45.0542 25.9814 44.2538 25.9814 43.4538C25.9814 43.0539 25.9145 42.6874 25.7812 42.3542C25.6479 42.0208 25.5481 41.8203 25.4814 41.7536Z" fill="#AABA78"/>
<path d="M0 0.5202C1.56941 0.109945 3.13869 -0.133714 4.79785 0.0778172C9.82938 0.719561 14.0981 4.34708 14.2188 10.8698C12.1396 8.37994 9.92401 6.70491 7.2334 5.56512L8.05664 6.25555C10.092 7.78949 12.3356 10.6604 13.7988 12.9899C10.9711 15.093 7.46779 14.8237 4.55762 11.8845C1.79514 9.09442 0.504331 4.52637 0 0.5202Z" fill="#AABA78"/>
<path d="M32.8971 46.592C32.8971 46.6987 32.8011 46.752 32.6091 46.752C32.4171 46.752 32.2197 46.7093 32.0171 46.624C31.8251 46.5493 31.7291 46.4427 31.7291 46.304L31.7611 44.88V38.112C31.7611 37.5467 31.7451 36.992 31.7131 36.448C31.7131 36.3413 31.8091 36.288 32.0011 36.288C32.1931 36.288 32.3904 36.3307 32.5931 36.416C32.7957 36.4907 32.8971 36.5973 32.8971 36.736C32.8971 36.8 32.8917 36.9173 32.8811 37.088C32.8704 37.2587 32.8597 37.44 32.8491 37.632C32.8491 37.8133 32.8437 37.968 32.8331 38.096C33.2597 37.3707 33.7184 36.88 34.2091 36.624C34.7104 36.3573 35.2544 36.224 35.8411 36.224C36.6411 36.224 37.2971 36.5067 37.8091 37.072C38.3211 37.6373 38.5771 38.416 38.5771 39.408C38.5771 40.4 38.4064 41.2533 38.0651 41.968C37.7344 42.6827 37.2811 43.248 36.7051 43.664C36.1291 44.0693 35.4784 44.272 34.7531 44.272C34.3797 44.272 34.0064 44.1813 33.6331 44C33.2597 43.8187 32.9877 43.616 32.8171 43.392V44.896L32.8971 46.592ZM33.3291 42.704C33.6171 43.1307 34.0757 43.344 34.7051 43.344C35.3344 43.344 35.9531 43.0027 36.5611 42.32C37.1797 41.6373 37.4891 40.752 37.4891 39.664C37.4891 38.5653 37.2011 37.824 36.6251 37.44C36.3797 37.2693 36.0757 37.184 35.7131 37.184C35.3504 37.184 34.9664 37.3013 34.5611 37.536C34.1664 37.7707 33.7984 38.1387 33.4571 38.64C33.1157 39.1307 32.9131 39.8027 32.8491 40.656C32.8171 41.104 32.8011 41.68 32.8011 42.384C32.8437 42.3627 32.8811 42.352 32.9131 42.352C33.0304 42.352 33.1691 42.4693 33.3291 42.704Z" fill="#AABA78"/>
<path d="M42.0853 44C42.0853 44.1067 41.9893 44.16 41.7973 44.16C41.6053 44.16 41.408 44.1173 41.2053 44.032C41.0133 43.9573 40.9173 43.8507 40.9173 43.712L40.9493 42.304V38.128L40.9013 36.416C40.9013 36.3093 40.9973 36.256 41.1893 36.256C41.3813 36.256 41.5733 36.2987 41.7653 36.384C41.968 36.4587 42.0693 36.56 42.0693 36.688C42.0693 36.8053 42.0586 36.928 42.0373 37.056C42.0266 37.184 42.0213 37.3387 42.0213 37.52C42.2346 37.168 42.5386 36.864 42.9333 36.608C43.328 36.352 43.744 36.224 44.1813 36.224C44.6186 36.224 44.976 36.2773 45.2533 36.384C45.5306 36.4907 45.7546 36.6187 45.9253 36.768C46.1066 36.9173 46.1973 37.0667 46.1973 37.216C46.1973 37.3653 46.1333 37.536 46.0053 37.728C45.888 37.92 45.7706 38.016 45.6533 38.016C45.5466 38.016 45.4613 37.9627 45.3973 37.856C45.2906 37.6533 45.12 37.504 44.8853 37.408C44.6613 37.312 44.4693 37.264 44.3093 37.264C43.8613 37.264 43.4453 37.4027 43.0613 37.68C42.5066 38.0853 42.176 38.7733 42.0693 39.744C42.0266 40.128 42.0053 40.9813 42.0053 42.304L42.0853 44Z" fill="#AABA78"/>
<path d="M53.4243 42.944C52.7203 43.84 51.803 44.288 50.6723 44.288C49.5523 44.288 48.6936 43.968 48.0963 43.328C47.5096 42.6773 47.2163 41.7973 47.2163 40.688C47.2163 39.8347 47.483 38.944 48.0163 38.016C48.2296 37.632 48.443 37.3227 48.6563 37.088C48.8696 36.8533 49.0296 36.736 49.1363 36.736C49.2536 36.736 49.3496 36.784 49.4243 36.88C50.011 36.4427 50.6243 36.224 51.2643 36.224C51.9043 36.224 52.459 36.3787 52.9283 36.688C53.9203 37.3387 54.4163 38.4693 54.4163 40.08C54.4163 41.168 54.0856 42.1227 53.4243 42.944ZM50.5923 43.312C51.115 43.312 51.579 43.1733 51.9843 42.896C52.4003 42.608 52.731 42.2187 52.9763 41.728C53.2216 41.2373 53.3443 40.6187 53.3443 39.872C53.3443 39.1253 53.1683 38.4907 52.8163 37.968C52.475 37.4453 51.915 37.184 51.1363 37.184C50.3576 37.184 49.6856 37.552 49.1203 38.288C48.5656 39.0133 48.2883 39.8133 48.2883 40.688C48.2883 41.552 48.4856 42.208 48.8803 42.656C49.2856 43.0933 49.8563 43.312 50.5923 43.312Z" fill="#AABA78"/>
<path d="M63.0647 44.208C62.798 44.208 62.5954 43.9733 62.4567 43.504C62.3287 43.0347 62.2487 42.592 62.2167 42.176C61.9287 42.7627 61.5127 43.264 60.9687 43.68C60.4353 44.0853 59.8487 44.288 59.2087 44.288C58.5687 44.288 58.078 44.144 57.7367 43.856C57.0967 43.3333 56.7767 42.4693 56.7767 41.264V38.112L56.7287 36.416C56.7287 36.3093 56.8247 36.256 57.0167 36.256C57.2087 36.256 57.4007 36.2987 57.5927 36.384C57.7953 36.4587 57.8967 36.5653 57.8967 36.704L57.8647 38.112V41.2C57.8647 41.8187 57.9767 42.3307 58.2007 42.736C58.4247 43.1307 58.75 43.328 59.1767 43.328C59.614 43.328 60.046 43.152 60.4727 42.8C60.91 42.448 61.294 41.936 61.6247 41.264C61.9554 40.5813 62.1207 39.6693 62.1207 38.528V36.4C62.1207 36.2933 62.222 36.24 62.4247 36.24C62.6273 36.24 62.8247 36.2773 63.0167 36.352C63.2087 36.4267 63.3047 36.528 63.3047 36.656V36.688C63.1767 37.456 63.1127 38.608 63.1127 40.144C63.1127 41.68 63.3154 42.7787 63.7207 43.44C63.7314 43.4613 63.7367 43.5147 63.7367 43.6C63.7367 43.6747 63.662 43.7973 63.5127 43.968C63.374 44.128 63.2247 44.208 63.0647 44.208Z" fill="#AABA78"/>
<path d="M69.5742 43.584C69.0409 44.0533 68.5182 44.288 68.0062 44.288C67.4942 44.288 67.1209 44.1173 66.8862 43.776C66.6622 43.4347 66.5502 42.9227 66.5502 42.24V37.216H66.4702C66.4595 37.216 66.1342 37.2373 65.4942 37.28H65.4782C65.3395 37.28 65.2222 37.2 65.1262 37.04C65.0302 36.88 64.9822 36.7307 64.9822 36.592C64.9822 36.4427 65.0409 36.368 65.1582 36.368H66.5502V35.552L66.5182 33.84C66.5182 33.7333 66.6142 33.68 66.8062 33.68C66.9982 33.68 67.1902 33.7227 67.3822 33.808C67.5742 33.8827 67.6702 33.9893 67.6702 34.128L67.6382 35.552V36.32L68.0862 36.304C68.4702 36.2827 68.8755 36.2507 69.3022 36.208H69.3182C69.4569 36.208 69.5742 36.288 69.6702 36.448C69.7768 36.608 69.8302 36.7627 69.8302 36.912C69.8302 37.0613 69.7715 37.136 69.6542 37.136H69.0302C68.7315 37.136 68.4755 37.1413 68.2622 37.152L67.6382 37.168V42.272C67.6382 42.6987 67.6755 42.9707 67.7502 43.088C67.8248 43.2053 67.9635 43.264 68.1662 43.264C68.6142 43.264 69.1262 43.0453 69.7022 42.608C69.8835 42.4693 70.0275 42.4 70.1342 42.4C70.2409 42.4 70.2942 42.4533 70.2942 42.56C70.2942 42.784 70.0542 43.1253 69.5742 43.584Z" fill="#AABA78"/>
<path d="M73.1638 44.336C72.8011 44.2933 72.5291 44.1547 72.3478 43.92C72.1665 43.664 72.0705 43.2907 72.0598 42.8V34.56L72.0118 32.848C72.0118 32.7413 72.1078 32.688 72.2998 32.688C72.5025 32.688 72.6998 32.7307 72.8918 32.816C73.0945 32.8907 73.1958 32.9973 73.1958 33.136L73.1638 34.56V42.752C73.1638 43.04 73.1905 43.2213 73.2438 43.296C73.2865 43.3387 73.3505 43.36 73.4358 43.36H73.4678C73.6918 43.3493 73.9425 43.2 74.2198 42.912C74.3478 42.7947 74.4598 42.736 74.5558 42.736C74.6625 42.736 74.7158 42.8213 74.7158 42.992C74.7158 43.1627 74.5718 43.4293 74.2838 43.792C73.9638 44.1547 73.6438 44.336 73.3238 44.336H73.1638Z" fill="#AABA78"/>
<path d="M75.1749 36.576C75.1749 36.4053 75.3723 36.32 75.7669 36.32C76.1723 36.32 76.4069 36.4053 76.4709 36.576C76.5563 36.8213 76.7056 37.2 76.9189 37.712L78.7749 42.016L80.7429 37.872C80.9563 37.456 81.1483 36.96 81.3189 36.384C81.3509 36.288 81.4416 36.24 81.5909 36.24C81.7509 36.24 81.9216 36.2987 82.1029 36.416C82.2843 36.5333 82.3749 36.6507 82.3749 36.768C82.3749 36.8853 82.3429 37.0027 82.2789 37.12C82.2256 37.2267 82.1403 37.392 82.0229 37.616C81.9056 37.8293 81.7989 38.032 81.7029 38.224L78.3269 45.312C78.1136 45.76 77.8683 46.0907 77.5909 46.304C77.3243 46.5173 76.9829 46.624 76.5669 46.624H76.4069C76.2043 46.624 75.9749 46.6027 75.7189 46.56C75.4629 46.5173 75.2123 46.3947 74.9669 46.192C74.9136 46.1387 74.8869 46.0533 74.8869 45.936C74.8869 45.8187 74.9403 45.664 75.0469 45.472C75.1536 45.2907 75.2603 45.2 75.3669 45.2C75.4736 45.2 75.5909 45.2693 75.7189 45.408C75.8576 45.5467 76.0656 45.616 76.3429 45.616C76.6309 45.616 76.8549 45.552 77.0149 45.424C77.1856 45.296 77.3456 45.0667 77.4949 44.736L78.1989 43.264L75.8629 37.968C75.6283 37.456 75.4523 37.104 75.3349 36.912C75.2283 36.7093 75.1749 36.5973 75.1749 36.576Z" fill="#AABA78"/>
</svg>
