<svg width="400" height="200" viewBox="0 0 400 200" fill="none" xmlns="http://www.w3.org/2000/svg">
  <line x1="40" y1="160" x2="360" y2="160" stroke="hsl(75, 32%, 60%)" stroke-width="2" stroke-linecap="round" opacity="0.3" />
  <circle cx="60" cy="140" r="8" fill="hsl(30, 53%, 64%)" />
  <circle cx="60" cy="160" r="3" fill="hsl(75, 32%, 60%)" />
  <path d="M 130 160 Q 132 145 135 135" stroke="hsl(75, 32%, 60%)" stroke-width="2" stroke-linecap="round" />
  <ellipse cx="128" cy="145" rx="6" ry="8" fill="hsl(67, 51%, 76%)" transform="rotate(-30 128 145)" />
  <ellipse cx="138" cy="142" rx="6" ry="8" fill="hsl(75, 32%, 60%)" transform="rotate(20 138 142)" />
  <circle cx="130" cy="160" r="3" fill="hsl(75, 32%, 60%)" />
  <path d="M 200 160 L 200 115" stroke="hsl(75, 32%, 60%)" stroke-width="2.5" stroke-linecap="round" />
  <ellipse cx="192" cy="135" rx="8" ry="12" fill="hsl(67, 51%, 76%)" transform="rotate(-25 192 135)" />
  <ellipse cx="208" cy="130" rx="8" ry="12" fill="hsl(75, 32%, 60%)" transform="rotate(25 208 130)" />
  <ellipse cx="195" cy="120" rx="7" ry="10" fill="hsl(67, 51%, 76%)" transform="rotate(-15 195 120)" />
  <circle cx="200" cy="160" r="3" fill="hsl(75, 32%, 60%)" />
  <path d="M 270 160 L 270 95" stroke="hsl(75, 32%, 60%)" stroke-width="3" stroke-linecap="round" />
  <ellipse cx="258" cy="120" rx="10" ry="14" fill="hsl(67, 51%, 76%)" transform="rotate(-30 258 120)" />
  <ellipse cx="282" cy="115" rx="10" ry="14" fill="hsl(75, 32%, 60%)" transform="rotate(25 282 115)" />
  <ellipse cx="263" cy="105" rx="9" ry="13" fill="hsl(67, 51%, 76%)" transform="rotate(-20 263 105)" />
  <ellipse cx="278" cy="100" rx="9" ry="13" fill="hsl(75, 32%, 60%)" transform="rotate(20 278 100)" />
  <ellipse cx="270" cy="92" rx="8" ry="11" fill="hsl(67, 51%, 76%)" />
  <circle cx="270" cy="160" r="3" fill="hsl(75, 32%, 60%)" />
  <path d="M 340 160 L 340 80" stroke="hsl(75, 32%, 60%)" stroke-width="3" stroke-linecap="round" />
  <ellipse cx="328" cy="115" rx="10" ry="14" fill="hsl(67, 51%, 76%)" transform="rotate(-30 328 115)" />
  <ellipse cx="352" cy="110" rx="10" ry="14" fill="hsl(75, 32%, 60%)" transform="rotate(25 352 110)" />
  <ellipse cx="333" cy="100" rx="9" ry="13" fill="hsl(67, 51%, 76%)" transform="rotate(-20 333 100)" />
  <ellipse cx="348" cy="95" rx="9" ry="13" fill="hsl(75, 32%, 60%)" transform="rotate(20 348 95)" />
  <circle cx="340" cy="72" r="6" fill="hsl(43, 82%, 80%)" />
  <circle cx="332" cy="76" r="6" fill="hsl(43, 82%, 80%)" />
  <circle cx="348" cy="76" r="6" fill="hsl(43, 82%, 80%)" />
  <circle cx="336" cy="68" r="6" fill="hsl(43, 82%, 80%)" />
  <circle cx="344" cy="68" r="6" fill="hsl(43, 82%, 80%)" />
  <circle cx="340" cy="72" r="4" fill="hsl(30, 53%, 64%)" />
  <circle cx="340" cy="160" r="3" fill="hsl(75, 32%, 60%)" />
</svg>