<svg width="200" height="200" viewBox="0 0 200 200" fill="none" xmlns="http://www.w3.org/2000/svg">
  <path d="M100 180C100 180 95 150 90 120C85 90 75 60 68 40C62 25 60 15 60 15M100 180C100 180 105 150 110 120C115 90 125 60 132 40C138 25 140 15 140 15" stroke="hsl(75,32%,55%)" stroke-width="3" stroke-linecap="round" />
  <path d="M60 15C60 15 70 20 80 35C90 50 95 70 98 85C100 95 100 100 100 100C100 100 100 95 102 85C105 70 110 50 120 35C130 20 140 15 140 15" fill="hsl(75,32%,50%)" />
  <path d="M100 100L75 25" stroke="hsl(75,32%,45%)" stroke-width="1" stroke-linecap="round" />
  <path d="M100 100L85 20" stroke="hsl(75,32%,45%)" stroke-width="1" stroke-linecap="round" />
  <path d="M100 100L100 18" stroke="hsl(75,32%,45%)" stroke-width="1" stroke-linecap="round" />
  <path d="M100 100L115 20" stroke="hsl(75,32%,45%)" stroke-width="1" stroke-linecap="round" />
  <path d="M100 100L125 25" stroke="hsl(75,32%,45%)" stroke-width="1" stroke-linecap="round" />
</svg>