<svg width="200" height="200" viewBox="0 0 200 200" fill="none" xmlns="http://www.w3.org/2000/svg">
  <path d="M100 180C100 180 70 150 60 120C50 90 45 60 50 40C55 20 70 10 85 8C95 7 105 7 115 8C130 10 145 20 150 40C155 60 150 90 140 120C130 150 100 180 100 180Z" fill="hsl(75,32%,55%)" />
  <path d="M85 60C85 60 70 70 60 80C50 90 45 95 42 98M115 60C115 60 130 70 140 80C150 90 155 95 158 98M95 100C95 100 85 110 78 118M105 100C105 100 115 110 122 118M98 135C98 135 90 145 85 152M102 135C102 135 110 145 115 152" stroke="hsl(75,32%,50%)" stroke-width="3" stroke-linecap="round" />
</svg>