<svg width="200" height="200" viewBox="0 0 200 200" fill="none" xmlns="http://www.w3.org/2000/svg">
  <path d="M100 10C100 10 98 50 95 90C93 130 92 170 95 190" stroke="hsl(75,32%,55%)" stroke-width="3" stroke-linecap="round" />
  <ellipse cx="75" cy="30" rx="20" ry="8" fill="hsl(75,32%,50%)" transform="rotate(-35 75 30)" />
  <ellipse cx="68" cy="50" rx="22" ry="9" fill="hsl(75,32%,50%)" transform="rotate(-40 68 50)" />
  <ellipse cx="62" cy="72" rx="24" ry="10" fill="hsl(75,32%,50%)" transform="rotate(-42 62 72)" />
  <ellipse cx="58" cy="95" rx="25" ry="10" fill="hsl(75,32%,50%)" transform="rotate(-45 58 95)" />
  <ellipse cx="56" cy="118" rx="24" ry="10" fill="hsl(75,32%,50%)" transform="rotate(-45 56 118)" />
  <ellipse cx="58" cy="140" rx="22" ry="9" fill="hsl(75,32%,50%)" transform="rotate(-42 58 140)" />
  <ellipse cx="64" cy="160" rx="18" ry="8" fill="hsl(75,32%,50%)" transform="rotate(-38 64 160)" />
  <ellipse cx="115" cy="35" rx="20" ry="8" fill="hsl(75,32%,50%)" transform="rotate(35 115 35)" />
  <ellipse cx="122" cy="55" rx="22" ry="9" fill="hsl(75,32%,50%)" transform="rotate(40 122 55)" />
  <ellipse cx="128" cy="77" rx="24" ry="10" fill="hsl(75,32%,50%)" transform="rotate(42 128 77)" />
  <ellipse cx="132" cy="100" rx="25" ry="10" fill="hsl(75,32%,50%)" transform="rotate(45 132 100)" />
  <ellipse cx="134" cy="123" rx="24" ry="10" fill="hsl(75,32%,50%)" transform="rotate(45 134 123)" />
  <ellipse cx="132" cy="145" rx="22" ry="9" fill="hsl(75,32%,50%)" transform="rotate(42 132 145)" />
  <ellipse cx="126" cy="165" rx="18" ry="8" fill="hsl(75,32%,50%)" transform="rotate(38 126 165)" />
</svg>