<svg width="200" height="200" viewBox="0 0 200 200" fill="none" xmlns="http://www.w3.org/2000/svg">
  <path d="M100 20C100 20 95 60 92 90C90 110 88 130 90 150C92 165 95 175 100 180" stroke="hsl(75,32%,55%)" stroke-width="4" stroke-linecap="round" />
  <path d="M92 40C92 40 70 35 55 40C45 43 40 48 38 52" stroke="hsl(75,32%,50%)" stroke-width="2.5" stroke-linecap="round" />
  <path d="M91 60C91 60 65 58 48 65C38 69 32 75 28 80" stroke="hsl(75,32%,50%)" stroke-width="2.5" stroke-linecap="round" />
  <path d="M90 80C90 80 60 82 42 92C32 98 25 106 20 112" stroke="hsl(75,32%,50%)" stroke-width="2.5" stroke-linecap="round" />
  <path d="M89 100C89 100 58 108 38 122C28 130 20 140 15 148" stroke="hsl(75,32%,50%)" stroke-width="2.5" stroke-linecap="round" />
  <path d="M89 120C89 120 60 132 42 148C32 157 25 167 20 175" stroke="hsl(75,32%,50%)" stroke-width="2.5" stroke-linecap="round" />
  <path d="M96 40C96 40 118 35 133 40C143 43 148 48 150 52" stroke="hsl(75,32%,50%)" stroke-width="2.5" stroke-linecap="round" />
  <path d="M97 60C97 60 123 58 140 65C150 69 156 75 160 80" stroke="hsl(75,32%,50%)" stroke-width="2.5" stroke-linecap="round" />
  <path d="M98 80C98 80 128 82 146 92C156 98 163 106 168 112" stroke="hsl(75,32%,50%)" stroke-width="2.5" stroke-linecap="round" />
  <path d="M99 100C99 100 130 108 150 122C160 130 168 140 173 148" stroke="hsl(75,32%,50%)" stroke-width="2.5" stroke-linecap="round" />
  <path d="M99 120C99 120 128 132 146 148C156 157 163 167 168 175" stroke="hsl(75,32%,50%)" stroke-width="2.5" stroke-linecap="round" />
</svg>